# xmcd
#
# Track frame offsets: 
#        183
#        12650
#        34150
#        48503
#        62943
#        79055
#        92548
#        107555
#        121593
#        141010
#        154720
#        167628
#        185058
#        202100
#
# Disc length: 2912 seconds
#
# Revision: 40
# Processed by: cddbd v1.5.2PL0 Copyright (c) Steve Scherf et al.
# Submitted via: ExactAudioCopy v0.99pb5
#
DISCID=bb0b5e0e
DTITLE=Beatles - 1967-1970 (Blue Album) - CD 1
DYEAR=1993
DGENRE=Pop
TTITLE0=Back in the U.S.S.R.
TTITLE1=While my guitar gently weps
TTITLE2=Ob-la-di, ob-la-da
TTITLE3=Get back (with Billy Preston)
TTITLE4=Don't let me down (with Billy Preston)
TTITLE5=The ballad of John and Yoko
TTITLE6=Old brown shoe
TTITLE7=Here comes the sun
TTITLE8=Come together
TTITLE9=Something
TTITLE10=Octopus's garden
TTITLE11=Let it be
TTITLE12=Across the universe
TTITLE13=The long and winding road
EXTD=YEAR: 1993
EXTT0=
EXTT1=
EXTT2=
EXTT3=
EXTT4=
EXTT5=
EXTT6=
EXTT7=
EXTT8=
EXTT9=
EXTT10=
EXTT11=
EXTT12=
EXTT13=
PLAYORDER=
